# xmcd
#
# Track frame offsets: 
#        150
#        17410
#        34034
#        53237
#        65569
#        85942
#        103885
#        119729
#        144440
#        153958
#        167829
#        186929
#
# Disc length: 2704 seconds
#
# Revision: 0
# Processed by: cddbd v1.5.2PL0 Copyright (c) Steve Scherf et al.
# Submitted via: ExactAudioCopy v0.99pb5
#
DISCID=a20a8e0c
DTITLE=Various Artist - Safari Jorden Rundt
DYEAR=2003
DGENRE=Latin
TTITLE0=Palmesang
TTITLE1=Savannesang
TTITLE2=Dans i maj
TTITLE3=Frøsang
TTITLE4=Drømmeland
TTITLE5=Sangen om Bob
TTITLE6=Ka'li'sang
TTITLE7=Pedros Sang
TTITLE8=Loppesang
TTITLE9=Billesang
TTITLE10=Regnvejrssang
TTITLE11=Hjemvesang
EXTD=
EXTT0=
EXTT1=
EXTT2=
EXTT3=
EXTT4=
EXTT5=
EXTT6=
EXTT7=
EXTT8=
EXTT9=
EXTT10=
EXTT11=
PLAYORDER=
